<?xml version="1.0" encoding="us-ascii" standalone="no"?><svg xmlns="http://www.w3.org/2000/svg" xmlns:xlink="http://www.w3.org/1999/xlink" contentStyleType="text/css" height="590px" preserveAspectRatio="none" style="width:466px;height:590px;background:#FFFFFF;" version="1.1" viewBox="0 0 466 590" width="466px" zoomAndPan="magnify"><defs/><g><text fill="#000000" font-family="sans-serif" font-size="14" font-weight="bold" lengthAdjust="spacing" textLength="290" x="81.4992" y="22.9951">Klassediagram for heisprogramvare</text><!--class heis--><g id="elem_heis"><rect codeLine="5" fill="#F1F1F1" height="156.375" id="heis" rx="2.5" ry="2.5" style="stroke:#181818;stroke-width:0.5;" width="200" x="243.8734" y="44.2969"/><text fill="#000000" font-family="sans-serif" font-size="14" lengthAdjust="spacing" textLength="29" x="329.3734" y="62.292">heis</text><line style="stroke:#181818;stroke-width:0.5;" x1="244.8734" x2="442.8734" y1="70.5938" y2="70.5938"/><line style="stroke:#181818;stroke-width:0.5;" x1="244.8734" x2="442.8734" y1="78.5938" y2="78.5938"/><ellipse cx="254.8734" cy="92.2422" fill="#84BE84" rx="3" ry="3" style="stroke:#038048;stroke-width:1.0;"/><text fill="#000000" font-family="sans-serif" font-size="14" lengthAdjust="spacing" textLength="76" x="263.8734" y="95.5889">get_floor()</text><ellipse cx="254.8734" cy="108.5391" fill="#84BE84" rx="3" ry="3" style="stroke:#038048;stroke-width:1.0;"/><text fill="#000000" font-family="sans-serif" font-size="14" lengthAdjust="spacing" textLength="140" x="263.8734" y="111.8857">get_floor_buttons()</text><ellipse cx="254.8734" cy="124.8359" fill="#84BE84" rx="3" ry="3" style="stroke:#038048;stroke-width:1.0;"/><text fill="#000000" font-family="sans-serif" font-size="14" lengthAdjust="spacing" textLength="126" x="263.8734" y="128.1826">get_obstruction()</text><ellipse cx="254.8734" cy="141.1328" fill="#84BE84" rx="3" ry="3" style="stroke:#038048;stroke-width:1.0;"/><text fill="#000000" font-family="sans-serif" font-size="14" lengthAdjust="spacing" textLength="85" x="263.8734" y="144.4795">set_motor()</text><ellipse cx="254.8734" cy="157.4297" fill="#84BE84" rx="3" ry="3" style="stroke:#038048;stroke-width:1.0;"/><text fill="#000000" font-family="sans-serif" font-size="14" lengthAdjust="spacing" textLength="116" x="263.8734" y="160.7764">set_door_lamp()</text><ellipse cx="254.8734" cy="173.7266" fill="#84BE84" rx="3" ry="3" style="stroke:#038048;stroke-width:1.0;"/><text fill="#000000" font-family="sans-serif" font-size="14" lengthAdjust="spacing" textLength="117" x="263.8734" y="177.0732">set_floor_lamp()</text><ellipse cx="254.8734" cy="190.0234" fill="#84BE84" rx="3" ry="3" style="stroke:#038048;stroke-width:1.0;"/><text fill="#000000" font-family="sans-serif" font-size="14" lengthAdjust="spacing" textLength="174" x="263.8734" y="193.3701">set_floor_button_lamp()</text></g><!--class inputs--><g id="elem_inputs"><rect codeLine="15" fill="#F1F1F1" height="156.375" id="inputs" rx="2.5" ry="2.5" style="stroke:#181818;stroke-width:0.5;" width="169" x="58.3738" y="260.2969"/><text fill="#000000" font-family="sans-serif" font-size="14" lengthAdjust="spacing" textLength="45" x="120.3738" y="278.292">inputs</text><line style="stroke:#181818;stroke-width:0.5;" x1="59.3738" x2="226.3738" y1="286.5938" y2="286.5938"/><rect fill="none" height="6" style="stroke:#C82930;stroke-width:1.0;" width="6" x="66.3738" y="297.2422"/><text fill="#000000" font-family="sans-serif" font-size="14" lengthAdjust="spacing" textLength="143" x="78.3738" y="303.5889">floor_button_states</text><rect fill="none" height="6" style="stroke:#C82930;stroke-width:1.0;" width="6" x="66.3738" y="313.5391"/><text fill="#000000" font-family="sans-serif" font-size="14" lengthAdjust="spacing" textLength="142" x="78.3738" y="319.8857">stop_button_states</text><rect fill="none" height="6" style="stroke:#C82930;stroke-width:1.0;" width="6" x="66.3738" y="329.8359"/><text fill="#000000" font-family="sans-serif" font-size="14" lengthAdjust="spacing" textLength="129" x="78.3738" y="336.1826">obstruction_state</text><line style="stroke:#181818;stroke-width:0.5;" x1="59.3738" x2="226.3738" y1="343.4844" y2="343.4844"/><ellipse cx="69.3738" cy="357.1328" fill="#84BE84" rx="3" ry="3" style="stroke:#038048;stroke-width:1.0;"/><text fill="#000000" font-family="sans-serif" font-size="14" lengthAdjust="spacing" textLength="85" x="78.3738" y="360.4795">run_inputs()</text><ellipse cx="69.3738" cy="373.4297" fill="#84BE84" rx="3" ry="3" style="stroke:#038048;stroke-width:1.0;"/><text fill="#000000" font-family="sans-serif" font-size="14" lengthAdjust="spacing" textLength="140" x="78.3738" y="376.7764">get_floor_buttons()</text><ellipse cx="69.3738" cy="389.7266" fill="#84BE84" rx="3" ry="3" style="stroke:#038048;stroke-width:1.0;"/><text fill="#000000" font-family="sans-serif" font-size="14" lengthAdjust="spacing" textLength="132" x="78.3738" y="393.0732">get_stop_button()</text><ellipse cx="69.3738" cy="406.0234" fill="#84BE84" rx="3" ry="3" style="stroke:#038048;stroke-width:1.0;"/><text fill="#000000" font-family="sans-serif" font-size="14" lengthAdjust="spacing" textLength="126" x="78.3738" y="409.3701">get_obstruction()</text></g><!--class orders--><g id="elem_orders"><rect codeLine="26" fill="#F1F1F1" height="107.4844" id="orders" rx="2.5" ry="2.5" style="stroke:#181818;stroke-width:0.5;" width="147" x="61.3738" y="68.7969"/><text fill="#000000" font-family="sans-serif" font-size="14" lengthAdjust="spacing" textLength="46" x="111.8738" y="86.792">orders</text><line style="stroke:#181818;stroke-width:0.5;" x1="62.3738" x2="207.3738" y1="95.0938" y2="95.0938"/><rect fill="none" height="6" style="stroke:#C82930;stroke-width:1.0;" width="6" x="69.3738" y="105.7422"/><text fill="#000000" font-family="sans-serif" font-size="14" lengthAdjust="spacing" textLength="68" x="81.3738" y="112.0889">order_list</text><line style="stroke:#181818;stroke-width:0.5;" x1="62.3738" x2="207.3738" y1="119.3906" y2="119.3906"/><ellipse cx="72.3738" cy="133.0391" fill="#84BE84" rx="3" ry="3" style="stroke:#038048;stroke-width:1.0;"/><text fill="#000000" font-family="sans-serif" font-size="14" lengthAdjust="spacing" textLength="82" x="81.3738" y="136.3857">add_order()</text><ellipse cx="72.3738" cy="149.3359" fill="#84BE84" rx="3" ry="3" style="stroke:#038048;stroke-width:1.0;"/><text fill="#000000" font-family="sans-serif" font-size="14" lengthAdjust="spacing" textLength="88" x="81.3738" y="152.6826">get_orders()</text><ellipse cx="72.3738" cy="165.6328" fill="#84BE84" rx="3" ry="3" style="stroke:#038048;stroke-width:1.0;"/><text fill="#000000" font-family="sans-serif" font-size="14" lengthAdjust="spacing" textLength="121" x="81.3738" y="168.9795">get_next_order()</text></g><!--class fsm--><g id="elem_fsm"><rect codeLine="33" fill="#F1F1F1" height="107.4844" id="fsm" rx="2.5" ry="2.5" style="stroke:#181818;stroke-width:0.5;" width="146" x="262.8734" y="284.7969"/><text fill="#000000" font-family="sans-serif" font-size="14" lengthAdjust="spacing" textLength="27" x="322.3734" y="302.792">fsm</text><line style="stroke:#181818;stroke-width:0.5;" x1="263.8734" x2="407.8734" y1="311.0938" y2="311.0938"/><rect fill="none" height="6" style="stroke:#C82930;stroke-width:1.0;" width="6" x="270.8734" y="321.7422"/><text fill="#000000" font-family="sans-serif" font-size="14" lengthAdjust="spacing" textLength="72" x="282.8734" y="328.0889">fsm_state</text><rect fill="none" height="6" style="stroke:#C82930;stroke-width:1.0;" width="6" x="270.8734" y="338.0391"/><text fill="#000000" font-family="sans-serif" font-size="14" lengthAdjust="spacing" textLength="78" x="282.8734" y="344.3857">door_state</text><line style="stroke:#181818;stroke-width:0.5;" x1="263.8734" x2="407.8734" y1="351.6875" y2="351.6875"/><ellipse cx="273.8734" cy="365.3359" fill="#84BE84" rx="3" ry="3" style="stroke:#038048;stroke-width:1.0;"/><text fill="#000000" font-family="sans-serif" font-size="14" lengthAdjust="spacing" textLength="67" x="282.8734" y="368.6826">run_fsm()</text><ellipse cx="273.8734" cy="381.6328" fill="#84BE84" rx="3" ry="3" style="stroke:#038048;stroke-width:1.0;"/><text fill="#000000" font-family="sans-serif" font-size="14" lengthAdjust="spacing" textLength="120" x="282.8734" y="384.9795">get_door_state()</text></g><!--class light_sync--><g id="elem_light_sync"><rect codeLine="40" fill="#F1F1F1" height="107.4844" id="light_sync" rx="2.5" ry="2.5" style="stroke:#181818;stroke-width:0.5;" width="155" x="161.3734" y="476.2969"/><text fill="#000000" font-family="sans-serif" font-size="14" lengthAdjust="spacing" textLength="72" x="202.8734" y="494.292">light_sync</text><line style="stroke:#181818;stroke-width:0.5;" x1="162.3734" x2="315.3734" y1="502.5938" y2="502.5938"/><rect fill="none" height="6" style="stroke:#C82930;stroke-width:1.0;" width="6" x="169.3734" y="513.2422"/><text fill="#000000" font-family="sans-serif" font-size="14" lengthAdjust="spacing" textLength="129" x="181.3734" y="519.5889">floor_lamp_states</text><rect fill="none" height="6" style="stroke:#C82930;stroke-width:1.0;" width="6" x="169.3734" y="529.5391"/><text fill="#000000" font-family="sans-serif" font-size="14" lengthAdjust="spacing" textLength="121" x="181.3734" y="535.8857">door_lamp_state</text><rect fill="none" height="6" style="stroke:#C82930;stroke-width:1.0;" width="6" x="169.3734" y="545.8359"/><text fill="#000000" font-family="sans-serif" font-size="14" lengthAdjust="spacing" textLength="121" x="181.3734" y="552.1826">stop_lamp_state</text><line style="stroke:#181818;stroke-width:0.5;" x1="162.3734" x2="315.3734" y1="559.4844" y2="559.4844"/><ellipse cx="172.3734" cy="573.1328" fill="#84BE84" rx="3" ry="3" style="stroke:#038048;stroke-width:1.0;"/><text fill="#000000" font-family="sans-serif" font-size="14" lengthAdjust="spacing" textLength="112" x="181.3734" y="576.4795">run_light_sync()</text></g><!--reverse link inputs to light_sync--><g id="link_inputs_light_sync"><path codeLine="47" d="M184.632,421.7262 C194.807,441.8102 202.8264,457.6399 212.1964,476.1369 " fill="none" id="inputs-backto-light_sync" style="stroke:#181818;stroke-width:1.0;stroke-dasharray:7.0,7.0;"/><polygon fill="#181818" points="181.9204,416.3739,182.4196,426.2101,184.1801,420.8341,189.556,422.5946,181.9204,416.3739" style="stroke:#181818;stroke-width:1.0;"/></g><!--reverse link orders to light_sync--><g id="link_orders_light_sync"><path codeLine="48" d="M84.0379,180.6887 C65.6339,204.6557 50.3565,229.7149 40.8738,260.2969 C20.3394,326.5199 6,356.3729 40.8738,416.2969 C66.7755,460.8049 117.5757,489.1446 161.2334,506.2474 " fill="none" id="orders-backto-light_sync" style="stroke:#181818;stroke-width:1.0;stroke-dasharray:7.0,7.0;"/><polygon fill="#181818" points="87.6922,175.9299,79.0383,180.6319,84.647,179.8956,85.3834,185.5043,87.6922,175.9299" style="stroke:#181818;stroke-width:1.0;"/></g><!--reverse link fsm to light_sync--><g id="link_fsm_light_sync"><path codeLine="49" d="M306.2485,397.1728 C292.7925,423.4608 279.2804,449.8579 265.8174,476.1599 " fill="none" id="fsm-backto-light_sync" style="stroke:#181818;stroke-width:1.0;stroke-dasharray:7.0,7.0;"/><polygon fill="#181818" points="308.9824,391.8319,301.3209,398.0207,306.7042,396.2827,308.4422,401.6659,308.9824,391.8319" style="stroke:#181818;stroke-width:1.0;"/></g><!--reverse link heis to light_sync--><g id="link_heis_light_sync"><path codeLine="50" d="M402.729,205.5986 C413.492,224.3356 420.1874,239.7239 425.8734,260.2969 C444.3454,327.1239 459.9984,355.9429 425.8734,416.2969 C402.3774,457.8529 356.7104,485.7549 316.3884,503.377 " fill="none" id="heis-backto-light_sync" style="stroke:#181818;stroke-width:1.0;stroke-dasharray:7.0,7.0;"/><polygon fill="#181818" points="399.7404,200.3959,400.7548,210.1924,402.2309,204.7315,407.6918,206.2076,399.7404,200.3959" style="stroke:#181818;stroke-width:1.0;"/></g><!--reverse link heis to fsm--><g id="link_heis_fsm"><path codeLine="52" d="M340.7612,206.5517 C339.7182,234.4467 338.7904,259.2759 337.8444,284.5869 " fill="none" id="heis-backto-fsm" style="stroke:#181818;stroke-width:1.0;stroke-dasharray:7.0,7.0;"/><polygon fill="#181818" points="340.9854,200.5559,336.6519,209.4001,340.7986,205.5524,344.6463,209.699,340.9854,200.5559" style="stroke:#181818;stroke-width:1.0;"/></g><!--reverse link inputs to fsm--><g id="link_inputs_fsm"><path codeLine="53" d="M233.6884,338.2969 C245.3804,338.2969 251.0724,338.2969 262.7644,338.2969 " fill="none" id="inputs-backto-fsm" style="stroke:#181818;stroke-width:1.0;stroke-dasharray:7.0,7.0;"/><polygon fill="#181818" points="227.6884,338.2969,236.6884,342.2969,232.6884,338.2969,236.6884,334.2969,227.6884,338.2969" style="stroke:#181818;stroke-width:1.0;"/></g><!--reverse link orders to fsm--><g id="link_orders_fsm"><path codeLine="54" d="M188.4091,180.2943 C219.4451,213.3373 255.2234,251.4299 286.2884,284.5049 " fill="none" id="orders-backto-fsm" style="stroke:#181818;stroke-width:1.0;stroke-dasharray:7.0,7.0;"/><polygon fill="#181818" points="184.3014,175.9209,187.5474,185.2194,187.7245,179.5654,193.3786,179.7424,184.3014,175.9209" style="stroke:#181818;stroke-width:1.0;"/></g><!--reverse link heis to inputs--><g id="link_heis_inputs"><path codeLine="56" d="M267.2007,204.9292 C248.9837,224.3242 233.5444,240.7619 215.3324,260.1509 " fill="none" id="heis-backto-inputs" style="stroke:#181818;stroke-width:1.0;stroke-dasharray:7.0,7.0;"/><polygon fill="#181818" points="271.3084,200.5559,262.2312,204.3774,267.8853,204.2004,268.0624,209.8544,271.3084,200.5559" style="stroke:#181818;stroke-width:1.0;"/></g><!--reverse link orders to inputs--><g id="link_orders_inputs"><path codeLine="57" d="M137.0654,181.9167 C138.0134,207.2867 138.9454,232.2159 139.9914,260.1799 " fill="none" id="orders-backto-inputs" style="stroke:#181818;stroke-width:1.0;stroke-dasharray:7.0,7.0;"/><polygon fill="#181818" points="136.8414,175.9209,133.1803,185.064,137.0281,180.9174,141.1747,184.7652,136.8414,175.9209" style="stroke:#181818;stroke-width:1.0;"/></g><!--SRC=[ZP91RiGW34Ntd0BDgbNLEK8lq4CW9ZW94e48ErMhgdTlW2IOoLGgEp_iR_i3MN8WB-zE8uAnUeXwads8SWIBSmmf_j0HBaACre3iREmS2D6bWfmaluLSpyi0f7eNGdnwlWFgjX05Z_mYt93Yqf4DViUuuYbG5KZ0f7gdfvd3elgObbxxvSy-gVNpGlkihqqgaYR0Se4KvaUSZLkuA7tZubMH_jVMJFvlCuwPGpGGZvbpf9n5AeNQ69LPevHBEF7mIKVU8TtZT7Y1qxPI3hFXDSuRhYbSigPmIMU7STtmotUjo-ab6YzDIvdnTp3thhAb6MjpNURhs_QoPrwiEFDrcJDC7rc8v0gBS-YWfzgbPcpoOljOhAmX9UqN]--></g></svg>