<?xml version="1.0" encoding="us-ascii" standalone="no"?><svg xmlns="http://www.w3.org/2000/svg" xmlns:xlink="http://www.w3.org/1999/xlink" contentStyleType="text/css" height="1538px" preserveAspectRatio="none" style="width:437px;height:1538px;background:#FFFFFF;" version="1.1" viewBox="0 0 437 1538" width="437px" zoomAndPan="magnify"><defs/><g><text fill="#000000" font-family="sans-serif" font-size="14" font-weight="bold" lengthAdjust="spacing" textLength="199" x="80.75" y="27.9951">Sekvensdiagram for heis</text><text fill="#000000" font-family="sans-serif" font-size="14" font-weight="bold" lengthAdjust="spacing" text-decoration="underline" textLength="80" x="279.75" y="27.9951">kontroller</text><rect fill="#FFFFFF" height="1410.6016" style="stroke:#181818;stroke-width:1.0;" width="10" x="56.5" y="83.5938"/><rect fill="#FFFFFF" height="29.1328" style="stroke:#181818;stroke-width:1.0;" width="10" x="242.5" y="128.8594"/><rect fill="#FFFFFF" height="30" style="stroke:#181818;stroke-width:1.0;" width="10" x="242.5" y="579.3906"/><rect fill="#FFFFFF" height="30" style="stroke:#181818;stroke-width:1.0;" width="10" x="242.5" y="990.3906"/><rect fill="#FFFFFF" height="29.1328" style="stroke:#181818;stroke-width:1.0;" width="10" x="313" y="187.125"/><rect fill="#FFFFFF" height="29.1328" style="stroke:#181818;stroke-width:1.0;" width="10" x="313" y="245.3906"/><rect fill="#FFFFFF" height="30" style="stroke:#181818;stroke-width:1.0;" width="10" x="374.5" y="425.1875"/><rect fill="#FFFFFF" height="30" style="stroke:#181818;stroke-width:1.0;" width="10" x="374.5" y="662.6563"/><rect fill="#FFFFFF" height="30" style="stroke:#181818;stroke-width:1.0;" width="10" x="374.5" y="752.9219"/><rect fill="#FFFFFF" height="30" style="stroke:#181818;stroke-width:1.0;" width="10" x="374.5" y="931.2578"/><rect fill="#FFFFFF" height="30" style="stroke:#181818;stroke-width:1.0;" width="10" x="374.5" y="1064.3281"/><rect fill="#FFFFFF" height="30" style="stroke:#181818;stroke-width:1.0;" width="10" x="374.5" y="1196.7266"/><rect fill="#FFFFFF" height="30" style="stroke:#181818;stroke-width:1.0;" width="10" x="374.5" y="1301.7969"/><rect fill="#FFFFFF" height="30" style="stroke:#181818;stroke-width:1.0;" width="10" x="374.5" y="1392.0625"/><rect fill="none" height="1395.6016" style="stroke:#000000;stroke-width:1.5;" width="421.5" x="10" y="90.5938"/><rect fill="none" height="59.2656" style="stroke:#000000;stroke-width:1.5;" width="220" x="30" y="289.5234"/><rect fill="none" height="1116.4063" style="stroke:#000000;stroke-width:1.5;" width="401.5" x="20" y="362.7891"/><rect fill="none" height="76.2656" style="stroke:#000000;stroke-width:1.5;" width="381.5" x="30" y="386.9219"/><rect fill="none" height="59.2656" style="stroke:#000000;stroke-width:1.5;" width="199.5" x="30" y="477.1875"/><rect fill="none" height="76.2656" style="stroke:#000000;stroke-width:1.5;" width="381.5" x="30" y="624.3906"/><rect fill="none" height="76.2656" style="stroke:#000000;stroke-width:1.5;" width="381.5" x="30" y="714.6563"/><rect fill="none" height="59.2656" style="stroke:#000000;stroke-width:1.5;" width="241" x="30" y="804.9219"/><rect fill="none" height="251.4688" style="stroke:#000000;stroke-width:1.5;" width="381.5" x="30" y="892.9922"/><rect fill="none" height="76.2656" style="stroke:#000000;stroke-width:1.5;" width="381.5" x="30" y="1158.4609"/><rect fill="none" height="76.2656" style="stroke:#000000;stroke-width:1.5;" width="381.5" x="30" y="1263.5313"/><rect fill="none" height="118.3984" style="stroke:#000000;stroke-width:1.5;" width="381.5" x="30" y="1353.7969"/><line style="stroke:#181818;stroke-width:0.5;stroke-dasharray:5.0,5.0;" x1="61" x2="61" y1="73.5938" y2="1503.1953"/><line style="stroke:#181818;stroke-width:0.5;stroke-dasharray:5.0,5.0;" x1="247.5" x2="247.5" y1="73.5938" y2="1503.1953"/><line style="stroke:#181818;stroke-width:0.5;stroke-dasharray:5.0,5.0;" x1="317.5" x2="317.5" y1="73.5938" y2="1503.1953"/><line style="stroke:#181818;stroke-width:0.5;stroke-dasharray:5.0,5.0;" x1="379.5" x2="379.5" y1="73.5938" y2="1503.1953"/><rect fill="#E2E2F0" height="30.2969" rx="2.5" ry="2.5" style="stroke:#181818;stroke-width:0.5;" width="43" x="40" y="42.2969"/><text fill="#000000" font-family="sans-serif" font-size="14" lengthAdjust="spacing" textLength="29" x="47" y="62.292">FSM</text><rect fill="#E2E2F0" height="30.2969" rx="2.5" ry="2.5" style="stroke:#181818;stroke-width:0.5;" width="43" x="40" y="1502.1953"/><text fill="#000000" font-family="sans-serif" font-size="14" lengthAdjust="spacing" textLength="29" x="47" y="1522.1904">FSM</text><rect fill="#E2E2F0" height="30.2969" rx="2.5" ry="2.5" style="stroke:#181818;stroke-width:0.5;" width="62" x="216.5" y="42.2969"/><text fill="#000000" font-family="sans-serif" font-size="14" lengthAdjust="spacing" textLength="48" x="223.5" y="62.292">Orders</text><rect fill="#E2E2F0" height="30.2969" rx="2.5" ry="2.5" style="stroke:#181818;stroke-width:0.5;" width="62" x="216.5" y="1502.1953"/><text fill="#000000" font-family="sans-serif" font-size="14" lengthAdjust="spacing" textLength="48" x="223.5" y="1522.1904">Orders</text><rect fill="#E2E2F0" height="30.2969" rx="2.5" ry="2.5" style="stroke:#181818;stroke-width:0.5;" width="59" x="288.5" y="42.2969"/><text fill="#000000" font-family="sans-serif" font-size="14" lengthAdjust="spacing" textLength="45" x="295.5" y="62.292">Inputs</text><rect fill="#E2E2F0" height="30.2969" rx="2.5" ry="2.5" style="stroke:#181818;stroke-width:0.5;" width="59" x="288.5" y="1502.1953"/><text fill="#000000" font-family="sans-serif" font-size="14" lengthAdjust="spacing" textLength="45" x="295.5" y="1522.1904">Inputs</text><rect fill="#E2E2F0" height="30.2969" rx="2.5" ry="2.5" style="stroke:#181818;stroke-width:0.5;" width="44" x="357.5" y="42.2969"/><text fill="#000000" font-family="sans-serif" font-size="14" lengthAdjust="spacing" textLength="30" x="364.5" y="62.292">Heis</text><rect fill="#E2E2F0" height="30.2969" rx="2.5" ry="2.5" style="stroke:#181818;stroke-width:0.5;" width="44" x="357.5" y="1502.1953"/><text fill="#000000" font-family="sans-serif" font-size="14" lengthAdjust="spacing" textLength="30" x="364.5" y="1522.1904">Heis</text><rect fill="#FFFFFF" height="1410.6016" style="stroke:#181818;stroke-width:1.0;" width="10" x="56.5" y="83.5938"/><rect fill="#FFFFFF" height="29.1328" style="stroke:#181818;stroke-width:1.0;" width="10" x="242.5" y="128.8594"/><rect fill="#FFFFFF" height="30" style="stroke:#181818;stroke-width:1.0;" width="10" x="242.5" y="579.3906"/><rect fill="#FFFFFF" height="30" style="stroke:#181818;stroke-width:1.0;" width="10" x="242.5" y="990.3906"/><rect fill="#FFFFFF" height="29.1328" style="stroke:#181818;stroke-width:1.0;" width="10" x="313" y="187.125"/><rect fill="#FFFFFF" height="29.1328" style="stroke:#181818;stroke-width:1.0;" width="10" x="313" y="245.3906"/><rect fill="#FFFFFF" height="30" style="stroke:#181818;stroke-width:1.0;" width="10" x="374.5" y="425.1875"/><rect fill="#FFFFFF" height="30" style="stroke:#181818;stroke-width:1.0;" width="10" x="374.5" y="662.6563"/><rect fill="#FFFFFF" height="30" style="stroke:#181818;stroke-width:1.0;" width="10" x="374.5" y="752.9219"/><rect fill="#FFFFFF" height="30" style="stroke:#181818;stroke-width:1.0;" width="10" x="374.5" y="931.2578"/><rect fill="#FFFFFF" height="30" style="stroke:#181818;stroke-width:1.0;" width="10" x="374.5" y="1064.3281"/><rect fill="#FFFFFF" height="30" style="stroke:#181818;stroke-width:1.0;" width="10" x="374.5" y="1196.7266"/><rect fill="#FFFFFF" height="30" style="stroke:#181818;stroke-width:1.0;" width="10" x="374.5" y="1301.7969"/><rect fill="#FFFFFF" height="30" style="stroke:#181818;stroke-width:1.0;" width="10" x="374.5" y="1392.0625"/><path d="M10,90.5938 L88,90.5938 L88,97.7266 L78,107.7266 L10,107.7266 L10,90.5938 " fill="#EEEEEE" style="stroke:#000000;stroke-width:1.5;"/><rect fill="none" height="1395.6016" style="stroke:#000000;stroke-width:1.5;" width="421.5" x="10" y="90.5938"/><text fill="#000000" font-family="sans-serif" font-size="13" font-weight="bold" lengthAdjust="spacing" textLength="33" x="25" y="103.6606">loop</text><polygon fill="#181818" points="230.5,124.8594,240.5,128.8594,230.5,132.8594,234.5,128.8594" style="stroke:#181818;stroke-width:1.0;"/><line style="stroke:#181818;stroke-width:1.0;" x1="66.5" x2="236.5" y1="128.8594" y2="128.8594"/><text fill="#000000" font-family="sans-serif" font-size="13" lengthAdjust="spacing" textLength="122" x="73.5" y="123.7935">Les neste bestilling</text><polygon fill="#181818" points="77.5,153.9922,67.5,157.9922,77.5,161.9922,73.5,157.9922" style="stroke:#181818;stroke-width:1.0;"/><line style="stroke:#181818;stroke-width:1.0;stroke-dasharray:2.0,2.0;" x1="71.5" x2="246.5" y1="157.9922" y2="157.9922"/><text fill="#000000" font-family="sans-serif" font-size="13" lengthAdjust="spacing" textLength="56" x="83.5" y="152.9263">Bestilling</text><polygon fill="#181818" points="301,183.125,311,187.125,301,191.125,305,187.125" style="stroke:#181818;stroke-width:1.0;"/><line style="stroke:#181818;stroke-width:1.0;" x1="66.5" x2="307" y1="187.125" y2="187.125"/><text fill="#000000" font-family="sans-serif" font-size="13" lengthAdjust="spacing" textLength="141" x="73.5" y="182.0591">Les etasjeinformasjon</text><polygon fill="#181818" points="77.5,212.2578,67.5,216.2578,77.5,220.2578,73.5,216.2578" style="stroke:#181818;stroke-width:1.0;"/><line style="stroke:#181818;stroke-width:1.0;stroke-dasharray:2.0,2.0;" x1="71.5" x2="317" y1="216.2578" y2="216.2578"/><text fill="#000000" font-family="sans-serif" font-size="13" lengthAdjust="spacing" textLength="115" x="83.5" y="211.1919">Etasjeinformasjon</text><polygon fill="#181818" points="301,241.3906,311,245.3906,301,249.3906,305,245.3906" style="stroke:#181818;stroke-width:1.0;"/><line style="stroke:#181818;stroke-width:1.0;" x1="66.5" x2="307" y1="245.3906" y2="245.3906"/><text fill="#000000" font-family="sans-serif" font-size="13" lengthAdjust="spacing" textLength="86" x="73.5" y="240.3247">Les n&#248;dstopp</text><polygon fill="#181818" points="77.5,270.5234,67.5,274.5234,77.5,278.5234,73.5,274.5234" style="stroke:#181818;stroke-width:1.0;"/><line style="stroke:#181818;stroke-width:1.0;stroke-dasharray:2.0,2.0;" x1="71.5" x2="317" y1="274.5234" y2="274.5234"/><text fill="#000000" font-family="sans-serif" font-size="13" lengthAdjust="spacing" textLength="108" x="83.5" y="269.4575">N&#248;dstopptilstand</text><path d="M30,289.5234 L102,289.5234 L102,296.6563 L92,306.6563 L30,306.6563 L30,289.5234 " fill="#EEEEEE" style="stroke:#000000;stroke-width:1.5;"/><rect fill="none" height="59.2656" style="stroke:#000000;stroke-width:1.5;" width="220" x="30" y="289.5234"/><text fill="#000000" font-family="sans-serif" font-size="13" font-weight="bold" lengthAdjust="spacing" textLength="27" x="45" y="302.5903">opt</text><text fill="#000000" font-family="sans-serif" font-size="11" font-weight="bold" lengthAdjust="spacing" textLength="128" x="117" y="301.7339">[N&#248;dstopp trykket]</text><line style="stroke:#181818;stroke-width:1.0;" x1="66.5" x2="108.5" y1="327.7891" y2="327.7891"/><line style="stroke:#181818;stroke-width:1.0;" x1="108.5" x2="108.5" y1="327.7891" y2="340.7891"/><line style="stroke:#181818;stroke-width:1.0;" x1="67.5" x2="108.5" y1="340.7891" y2="340.7891"/><polygon fill="#181818" points="77.5,336.7891,67.5,340.7891,77.5,344.7891,73.5,340.7891" style="stroke:#181818;stroke-width:1.0;"/><text fill="#000000" font-family="sans-serif" font-size="13" lengthAdjust="spacing" textLength="156" x="73.5" y="322.7231">Bytt tilstand til n&#248;dstopp</text><path d="M20,362.7891 L86,362.7891 L86,369.9219 L76,379.9219 L20,379.9219 L20,362.7891 " fill="#EEEEEE" style="stroke:#000000;stroke-width:1.5;"/><rect fill="none" height="1116.4063" style="stroke:#000000;stroke-width:1.5;" width="401.5" x="20" y="362.7891"/><text fill="#000000" font-family="sans-serif" font-size="13" font-weight="bold" lengthAdjust="spacing" textLength="21" x="35" y="375.856">alt</text><text fill="#000000" font-family="sans-serif" font-size="11" font-weight="bold" lengthAdjust="spacing" textLength="70" x="101" y="374.9995">[oppstart]</text><path d="M30,386.9219 L102,386.9219 L102,394.0547 L92,404.0547 L30,404.0547 L30,386.9219 " fill="#EEEEEE" style="stroke:#000000;stroke-width:1.5;"/><rect fill="none" height="76.2656" style="stroke:#000000;stroke-width:1.5;" width="381.5" x="30" y="386.9219"/><text fill="#000000" font-family="sans-serif" font-size="13" font-weight="bold" lengthAdjust="spacing" textLength="27" x="45" y="399.9888">opt</text><text fill="#000000" font-family="sans-serif" font-size="11" font-weight="bold" lengthAdjust="spacing" textLength="114" x="117" y="399.1323">[ikke i bevegelse]</text><polygon fill="#181818" points="362.5,421.1875,372.5,425.1875,362.5,429.1875,366.5,425.1875" style="stroke:#181818;stroke-width:1.0;"/><line style="stroke:#181818;stroke-width:1.0;" x1="66.5" x2="368.5" y1="425.1875" y2="425.1875"/><text fill="#000000" font-family="sans-serif" font-size="13" lengthAdjust="spacing" textLength="97" x="73.5" y="420.1216">Beveg nedover</text><path d="M30,477.1875 L102,477.1875 L102,484.3203 L92,494.3203 L30,494.3203 L30,477.1875 " fill="#EEEEEE" style="stroke:#000000;stroke-width:1.5;"/><rect fill="none" height="59.2656" style="stroke:#000000;stroke-width:1.5;" width="199.5" x="30" y="477.1875"/><text fill="#000000" font-family="sans-serif" font-size="13" font-weight="bold" lengthAdjust="spacing" textLength="27" x="45" y="490.2544">opt</text><text fill="#000000" font-family="sans-serif" font-size="11" font-weight="bold" lengthAdjust="spacing" textLength="106" x="117" y="489.3979">[etasje truffet]</text><line style="stroke:#181818;stroke-width:1.0;" x1="66.5" x2="108.5" y1="515.4531" y2="515.4531"/><line style="stroke:#181818;stroke-width:1.0;" x1="108.5" x2="108.5" y1="515.4531" y2="528.4531"/><line style="stroke:#181818;stroke-width:1.0;" x1="67.5" x2="108.5" y1="528.4531" y2="528.4531"/><polygon fill="#181818" points="77.5,524.4531,67.5,528.4531,77.5,532.4531,73.5,528.4531" style="stroke:#181818;stroke-width:1.0;"/><text fill="#000000" font-family="sans-serif" font-size="13" lengthAdjust="spacing" textLength="144" x="73.5" y="510.3872">Bytt tilstand til stanset</text><line style="stroke:#000000;stroke-width:1.0;stroke-dasharray:2.0,2.0;" x1="20" x2="421.5" y1="544.4531" y2="544.4531"/><text fill="#000000" font-family="sans-serif" font-size="11" font-weight="bold" lengthAdjust="spacing" textLength="74" x="25" y="554.6636">[n&#248;dstopp]</text><polygon fill="#181818" points="230.5,575.3906,240.5,579.3906,230.5,583.3906,234.5,579.3906" style="stroke:#181818;stroke-width:1.0;"/><line style="stroke:#181818;stroke-width:1.0;" x1="66.5" x2="236.5" y1="579.3906" y2="579.3906"/><text fill="#000000" font-family="sans-serif" font-size="13" lengthAdjust="spacing" textLength="128" x="73.5" y="574.3247">Slett alle bestillinger</text><path d="M30,624.3906 L102,624.3906 L102,631.5234 L92,641.5234 L30,641.5234 L30,624.3906 " fill="#EEEEEE" style="stroke:#000000;stroke-width:1.5;"/><rect fill="none" height="76.2656" style="stroke:#000000;stroke-width:1.5;" width="381.5" x="30" y="624.3906"/><text fill="#000000" font-family="sans-serif" font-size="13" font-weight="bold" lengthAdjust="spacing" textLength="27" x="45" y="637.4575">opt</text><text fill="#000000" font-family="sans-serif" font-size="11" font-weight="bold" lengthAdjust="spacing" textLength="172" x="117" y="636.6011">[ved etasje og d&#248;r lukket]</text><polygon fill="#181818" points="362.5,658.6563,372.5,662.6563,362.5,666.6563,366.5,662.6563" style="stroke:#181818;stroke-width:1.0;"/><line style="stroke:#181818;stroke-width:1.0;" x1="66.5" x2="368.5" y1="662.6563" y2="662.6563"/><text fill="#000000" font-family="sans-serif" font-size="13" lengthAdjust="spacing" textLength="58" x="73.5" y="657.5903">&#197;pne d&#248;r</text><path d="M30,714.6563 L102,714.6563 L102,721.7891 L92,731.7891 L30,731.7891 L30,714.6563 " fill="#EEEEEE" style="stroke:#000000;stroke-width:1.5;"/><rect fill="none" height="76.2656" style="stroke:#000000;stroke-width:1.5;" width="381.5" x="30" y="714.6563"/><text fill="#000000" font-family="sans-serif" font-size="13" font-weight="bold" lengthAdjust="spacing" textLength="27" x="45" y="727.7231">opt</text><text fill="#000000" font-family="sans-serif" font-size="11" font-weight="bold" lengthAdjust="spacing" textLength="84" x="117" y="726.8667">[i bevegelse]</text><polygon fill="#181818" points="362.5,748.9219,372.5,752.9219,362.5,756.9219,366.5,752.9219" style="stroke:#181818;stroke-width:1.0;"/><line style="stroke:#181818;stroke-width:1.0;" x1="66.5" x2="368.5" y1="752.9219" y2="752.9219"/><text fill="#000000" font-family="sans-serif" font-size="13" lengthAdjust="spacing" textLength="37" x="73.5" y="747.856">Stopp</text><path d="M30,804.9219 L102,804.9219 L102,812.0547 L92,822.0547 L30,822.0547 L30,804.9219 " fill="#EEEEEE" style="stroke:#000000;stroke-width:1.5;"/><rect fill="none" height="59.2656" style="stroke:#000000;stroke-width:1.5;" width="241" x="30" y="804.9219"/><text fill="#000000" font-family="sans-serif" font-size="13" font-weight="bold" lengthAdjust="spacing" textLength="27" x="45" y="817.9888">opt</text><text fill="#000000" font-family="sans-serif" font-size="11" font-weight="bold" lengthAdjust="spacing" textLength="149" x="117" y="817.1323">[n&#248;dstop ikke trykket]</text><line style="stroke:#181818;stroke-width:1.0;" x1="66.5" x2="108.5" y1="843.1875" y2="843.1875"/><line style="stroke:#181818;stroke-width:1.0;" x1="108.5" x2="108.5" y1="843.1875" y2="856.1875"/><line style="stroke:#181818;stroke-width:1.0;" x1="67.5" x2="108.5" y1="856.1875" y2="856.1875"/><polygon fill="#181818" points="77.5,852.1875,67.5,856.1875,77.5,860.1875,73.5,856.1875" style="stroke:#181818;stroke-width:1.0;"/><text fill="#000000" font-family="sans-serif" font-size="13" lengthAdjust="spacing" textLength="145" x="73.5" y="838.1216">Bytt tilstand til stoppet</text><line style="stroke:#000000;stroke-width:1.0;stroke-dasharray:2.0,2.0;" x1="20" x2="421.5" y1="872.1875" y2="872.1875"/><text fill="#000000" font-family="sans-serif" font-size="11" font-weight="bold" lengthAdjust="spacing" textLength="64" x="25" y="882.3979">[stoppet]</text><path d="M30,892.9922 L96,892.9922 L96,900.125 L86,910.125 L30,910.125 L30,892.9922 " fill="#EEEEEE" style="stroke:#000000;stroke-width:1.5;"/><rect fill="none" height="251.4688" style="stroke:#000000;stroke-width:1.5;" width="381.5" x="30" y="892.9922"/><text fill="#000000" font-family="sans-serif" font-size="13" font-weight="bold" lengthAdjust="spacing" textLength="21" x="45" y="906.0591">alt</text><text fill="#000000" font-family="sans-serif" font-size="11" font-weight="bold" lengthAdjust="spacing" textLength="246" x="111" y="905.2026">[bestilling finnes og i bestillt etasje]</text><polygon fill="#181818" points="362.5,927.2578,372.5,931.2578,362.5,935.2578,366.5,931.2578" style="stroke:#181818;stroke-width:1.0;"/><line style="stroke:#181818;stroke-width:1.0;" x1="66.5" x2="368.5" y1="931.2578" y2="931.2578"/><text fill="#000000" font-family="sans-serif" font-size="13" lengthAdjust="spacing" textLength="58" x="73.5" y="926.1919">&#197;pne d&#248;r</text><polygon fill="#181818" points="230.5,986.3906,240.5,990.3906,230.5,994.3906,234.5,990.3906" style="stroke:#181818;stroke-width:1.0;"/><line style="stroke:#181818;stroke-width:1.0;" x1="66.5" x2="236.5" y1="990.3906" y2="990.3906"/><text fill="#000000" font-family="sans-serif" font-size="13" lengthAdjust="spacing" textLength="89" x="73.5" y="985.3247">Slett bestilling</text><line style="stroke:#000000;stroke-width:1.0;stroke-dasharray:2.0,2.0;" x1="30" x2="411.5" y1="1029.3906" y2="1029.3906"/><text fill="#000000" font-family="sans-serif" font-size="11" font-weight="bold" lengthAdjust="spacing" textLength="211" x="35" y="1039.6011">[bestilling finnes og d&#248;r lukket]</text><polygon fill="#181818" points="362.5,1060.3281,372.5,1064.3281,362.5,1068.3281,366.5,1064.3281" style="stroke:#181818;stroke-width:1.0;"/><line style="stroke:#181818;stroke-width:1.0;" x1="66.5" x2="368.5" y1="1064.3281" y2="1064.3281"/><text fill="#000000" font-family="sans-serif" font-size="13" lengthAdjust="spacing" textLength="159" x="73.5" y="1059.2622">Beveg mot bestillt etasje</text><line style="stroke:#181818;stroke-width:1.0;" x1="66.5" x2="108.5" y1="1123.4609" y2="1123.4609"/><line style="stroke:#181818;stroke-width:1.0;" x1="108.5" x2="108.5" y1="1123.4609" y2="1136.4609"/><line style="stroke:#181818;stroke-width:1.0;" x1="67.5" x2="108.5" y1="1136.4609" y2="1136.4609"/><polygon fill="#181818" points="77.5,1132.4609,67.5,1136.4609,77.5,1140.4609,73.5,1136.4609" style="stroke:#181818;stroke-width:1.0;"/><text fill="#000000" font-family="sans-serif" font-size="13" lengthAdjust="spacing" textLength="162" x="73.5" y="1118.395">Bytt tilstand til bevegelse</text><path d="M30,1158.4609 L102,1158.4609 L102,1165.5938 L92,1175.5938 L30,1175.5938 L30,1158.4609 " fill="#EEEEEE" style="stroke:#000000;stroke-width:1.5;"/><rect fill="none" height="76.2656" style="stroke:#000000;stroke-width:1.5;" width="381.5" x="30" y="1158.4609"/><text fill="#000000" font-family="sans-serif" font-size="13" font-weight="bold" lengthAdjust="spacing" textLength="27" x="45" y="1171.5278">opt</text><text fill="#000000" font-family="sans-serif" font-size="11" font-weight="bold" lengthAdjust="spacing" textLength="245" x="117" y="1170.6714">[ingen obstruksjon og d&#248;r &#229;pen i 3 s]</text><polygon fill="#181818" points="362.5,1192.7266,372.5,1196.7266,362.5,1200.7266,366.5,1196.7266" style="stroke:#181818;stroke-width:1.0;"/><line style="stroke:#181818;stroke-width:1.0;" x1="66.5" x2="368.5" y1="1196.7266" y2="1196.7266"/><text fill="#000000" font-family="sans-serif" font-size="13" lengthAdjust="spacing" textLength="54" x="73.5" y="1191.6606">Lukk d&#248;r</text><line style="stroke:#000000;stroke-width:1.0;stroke-dasharray:2.0,2.0;" x1="20" x2="421.5" y1="1242.7266" y2="1242.7266"/><text fill="#000000" font-family="sans-serif" font-size="11" font-weight="bold" lengthAdjust="spacing" textLength="76" x="25" y="1252.937">[bevegelse]</text><path d="M30,1263.5313 L102,1263.5313 L102,1270.6641 L92,1280.6641 L30,1280.6641 L30,1263.5313 " fill="#EEEEEE" style="stroke:#000000;stroke-width:1.5;"/><rect fill="none" height="76.2656" style="stroke:#000000;stroke-width:1.5;" width="381.5" x="30" y="1263.5313"/><text fill="#000000" font-family="sans-serif" font-size="13" font-weight="bold" lengthAdjust="spacing" textLength="27" x="45" y="1276.5981">opt</text><text fill="#000000" font-family="sans-serif" font-size="11" font-weight="bold" lengthAdjust="spacing" textLength="91" x="117" y="1275.7417">[ny bestilling]</text><polygon fill="#181818" points="362.5,1297.7969,372.5,1301.7969,362.5,1305.7969,366.5,1301.7969" style="stroke:#181818;stroke-width:1.0;"/><line style="stroke:#181818;stroke-width:1.0;" x1="66.5" x2="368.5" y1="1301.7969" y2="1301.7969"/><text fill="#000000" font-family="sans-serif" font-size="13" lengthAdjust="spacing" textLength="159" x="73.5" y="1296.731">Beveg mot bestillt etasje</text><path d="M30,1353.7969 L102,1353.7969 L102,1360.9297 L92,1370.9297 L30,1370.9297 L30,1353.7969 " fill="#EEEEEE" style="stroke:#000000;stroke-width:1.5;"/><rect fill="none" height="118.3984" style="stroke:#000000;stroke-width:1.5;" width="381.5" x="30" y="1353.7969"/><text fill="#000000" font-family="sans-serif" font-size="13" font-weight="bold" lengthAdjust="spacing" textLength="27" x="45" y="1366.8638">opt</text><text fill="#000000" font-family="sans-serif" font-size="11" font-weight="bold" lengthAdjust="spacing" textLength="106" x="117" y="1366.0073">[i besillt etasje]</text><polygon fill="#181818" points="362.5,1388.0625,372.5,1392.0625,362.5,1396.0625,366.5,1392.0625" style="stroke:#181818;stroke-width:1.0;"/><line style="stroke:#181818;stroke-width:1.0;" x1="66.5" x2="368.5" y1="1392.0625" y2="1392.0625"/><text fill="#000000" font-family="sans-serif" font-size="13" lengthAdjust="spacing" textLength="37" x="73.5" y="1386.9966">Stopp</text><line style="stroke:#181818;stroke-width:1.0;" x1="66.5" x2="108.5" y1="1451.1953" y2="1451.1953"/><line style="stroke:#181818;stroke-width:1.0;" x1="108.5" x2="108.5" y1="1451.1953" y2="1464.1953"/><line style="stroke:#181818;stroke-width:1.0;" x1="67.5" x2="108.5" y1="1464.1953" y2="1464.1953"/><polygon fill="#181818" points="77.5,1460.1953,67.5,1464.1953,77.5,1468.1953,73.5,1464.1953" style="stroke:#181818;stroke-width:1.0;"/><text fill="#000000" font-family="sans-serif" font-size="13" lengthAdjust="spacing" textLength="145" x="73.5" y="1446.1294">Bytt tilstand til stoppet</text><!--SRC=[lLH1Ri8m4Bpd5Ilkd7ghgXugjMebsXvu00hDGjqOExANI3oWJ-aVkFEnhWasTY0G2LeEmR2xdfsToP8WYJ0OOrcZieN8voPVm4mR-4HX9vDIAp9QIZIJoI3ByWyITKu8J-FNB9DQLndmXt_1y1xUJO76ti88BIYqd3Rbfv1IgFasBvGtcQ7sRZWCnGzfIO7jeXZnHLLBsY4YvVOBXUBc5tpIAeLiKXD8N_ruj392tjLs8QlDkh2agwetufklOAgMSbMSGjGLxGk0pAeiaRQHg1_-ujcjYC1VwGwjrf21cXubyRKLvndAmbKEIF3b85Yu6kSeBOPWXFNCrd12SGhhNEWQJP8MMBZ4918nJ6AXCTz68oQJNSvc4TdpXDt9HXMucwtZ4asZFJxllh54lZ5dmqVUZUWTS_09ctewDHQUafv3iLaRaCj4neFnRhuhXTlKAypMdrEf-wWy3kRvWmwy7ethsixk8pOtrn9xhxQFxiLZr-zLXPbGlAMS8CB_xOtt3x9qcg-rCyyvxxZxmaJS88voxcN2vXrVQ3eve8l8TqXxQCs37U7UJ0LwQdbBb6vj1rgRdueZ0cx0TdCRCVSc_LhBQpTittXgzLMNiFyoyCFXEO1UZh_61hZaLNO7Vlm2]--></g></svg>