<?xml version="1.0" encoding="us-ascii" standalone="no"?><svg xmlns="http://www.w3.org/2000/svg" xmlns:xlink="http://www.w3.org/1999/xlink" contentStyleType="text/css" height="425px" preserveAspectRatio="none" style="width:414px;height:425px;background:#FFFFFF;" version="1.1" viewBox="0 0 414 425" width="414px" zoomAndPan="magnify"><defs/><g><text fill="#000000" font-family="sans-serif" font-size="14" font-weight="bold" lengthAdjust="spacing" textLength="218" x="97.25" y="27.9951">Sekvensdiagram for inputs</text><rect fill="#FFFFFF" height="297.1953" style="stroke:#181818;stroke-width:1.0;" width="10" x="54.5" y="83.5938"/><rect fill="#FFFFFF" height="29.1328" style="stroke:#181818;stroke-width:1.0;" width="10" x="235.5" y="128.8594"/><rect fill="#FFFFFF" height="29.1328" style="stroke:#181818;stroke-width:1.0;" width="10" x="235.5" y="284.3906"/><rect fill="#FFFFFF" height="30" style="stroke:#181818;stroke-width:1.0;" width="10" x="318.5" y="211.2578"/><rect fill="#FFFFFF" height="29.1328" style="stroke:#181818;stroke-width:1.0;" width="10" x="381.5" y="342.6563"/><rect fill="none" height="165.6641" style="stroke:#000000;stroke-width:1.5;" width="364.5" x="10" y="90.5938"/><rect fill="none" height="76.2656" style="stroke:#000000;stroke-width:1.5;" width="344.5" x="20" y="172.9922"/><line style="stroke:#181818;stroke-width:0.5;stroke-dasharray:5.0,5.0;" x1="59" x2="59" y1="73.5938" y2="389.7891"/><line style="stroke:#181818;stroke-width:0.5;stroke-dasharray:5.0,5.0;" x1="240.5" x2="240.5" y1="73.5938" y2="389.7891"/><line style="stroke:#181818;stroke-width:0.5;stroke-dasharray:5.0,5.0;" x1="323.5" x2="323.5" y1="73.5938" y2="389.7891"/><line style="stroke:#181818;stroke-width:0.5;stroke-dasharray:5.0,5.0;" x1="386.5" x2="386.5" y1="73.5938" y2="389.7891"/><rect fill="#E2E2F0" height="30.2969" rx="2.5" ry="2.5" style="stroke:#181818;stroke-width:0.5;" width="59" x="30" y="42.2969"/><text fill="#000000" font-family="sans-serif" font-size="14" lengthAdjust="spacing" textLength="45" x="37" y="62.292">Inputs</text><rect fill="#E2E2F0" height="30.2969" rx="2.5" ry="2.5" style="stroke:#181818;stroke-width:0.5;" width="59" x="30" y="388.7891"/><text fill="#000000" font-family="sans-serif" font-size="14" lengthAdjust="spacing" textLength="45" x="37" y="408.7842">Inputs</text><rect fill="#E2E2F0" height="30.2969" rx="2.5" ry="2.5" style="stroke:#181818;stroke-width:0.5;" width="84" x="198.5" y="42.2969"/><text fill="#000000" font-family="sans-serif" font-size="14" lengthAdjust="spacing" textLength="70" x="205.5" y="62.292">Heispanel</text><rect fill="#E2E2F0" height="30.2969" rx="2.5" ry="2.5" style="stroke:#181818;stroke-width:0.5;" width="84" x="198.5" y="388.7891"/><text fill="#000000" font-family="sans-serif" font-size="14" lengthAdjust="spacing" textLength="70" x="205.5" y="408.7842">Heispanel</text><rect fill="#E2E2F0" height="30.2969" rx="2.5" ry="2.5" style="stroke:#181818;stroke-width:0.5;" width="62" x="292.5" y="42.2969"/><text fill="#000000" font-family="sans-serif" font-size="14" lengthAdjust="spacing" textLength="48" x="299.5" y="62.292">Orders</text><rect fill="#E2E2F0" height="30.2969" rx="2.5" ry="2.5" style="stroke:#181818;stroke-width:0.5;" width="62" x="292.5" y="388.7891"/><text fill="#000000" font-family="sans-serif" font-size="14" lengthAdjust="spacing" textLength="48" x="299.5" y="408.7842">Orders</text><rect fill="#E2E2F0" height="30.2969" rx="2.5" ry="2.5" style="stroke:#181818;stroke-width:0.5;" width="44" x="364.5" y="42.2969"/><text fill="#000000" font-family="sans-serif" font-size="14" lengthAdjust="spacing" textLength="30" x="371.5" y="62.292">Heis</text><rect fill="#E2E2F0" height="30.2969" rx="2.5" ry="2.5" style="stroke:#181818;stroke-width:0.5;" width="44" x="364.5" y="388.7891"/><text fill="#000000" font-family="sans-serif" font-size="14" lengthAdjust="spacing" textLength="30" x="371.5" y="408.7842">Heis</text><rect fill="#FFFFFF" height="297.1953" style="stroke:#181818;stroke-width:1.0;" width="10" x="54.5" y="83.5938"/><rect fill="#FFFFFF" height="29.1328" style="stroke:#181818;stroke-width:1.0;" width="10" x="235.5" y="128.8594"/><rect fill="#FFFFFF" height="29.1328" style="stroke:#181818;stroke-width:1.0;" width="10" x="235.5" y="284.3906"/><rect fill="#FFFFFF" height="30" style="stroke:#181818;stroke-width:1.0;" width="10" x="318.5" y="211.2578"/><rect fill="#FFFFFF" height="29.1328" style="stroke:#181818;stroke-width:1.0;" width="10" x="381.5" y="342.6563"/><path d="M10,90.5938 L88,90.5938 L88,97.7266 L78,107.7266 L10,107.7266 L10,90.5938 " fill="#EEEEEE" style="stroke:#000000;stroke-width:1.5;"/><rect fill="none" height="165.6641" style="stroke:#000000;stroke-width:1.5;" width="364.5" x="10" y="90.5938"/><text fill="#000000" font-family="sans-serif" font-size="13" font-weight="bold" lengthAdjust="spacing" textLength="33" x="25" y="103.6606">loop</text><text fill="#000000" font-family="sans-serif" font-size="11" font-weight="bold" lengthAdjust="spacing" textLength="159" x="103" y="102.8042">[for alle etasjeknapper]</text><polygon fill="#181818" points="223.5,124.8594,233.5,128.8594,223.5,132.8594,227.5,128.8594" style="stroke:#181818;stroke-width:1.0;"/><line style="stroke:#181818;stroke-width:1.0;" x1="64.5" x2="229.5" y1="128.8594" y2="128.8594"/><text fill="#000000" font-family="sans-serif" font-size="13" lengthAdjust="spacing" textLength="104" x="71.5" y="123.7935">Les etasjeknapp</text><polygon fill="#181818" points="75.5,153.9922,65.5,157.9922,75.5,161.9922,71.5,157.9922" style="stroke:#181818;stroke-width:1.0;"/><line style="stroke:#181818;stroke-width:1.0;stroke-dasharray:2.0,2.0;" x1="69.5" x2="239.5" y1="157.9922" y2="157.9922"/><text fill="#000000" font-family="sans-serif" font-size="13" lengthAdjust="spacing" textLength="125" x="81.5" y="152.9263">Etasjeknapptilstand</text><path d="M20,172.9922 L92,172.9922 L92,180.125 L82,190.125 L20,190.125 L20,172.9922 " fill="#EEEEEE" style="stroke:#000000;stroke-width:1.5;"/><rect fill="none" height="76.2656" style="stroke:#000000;stroke-width:1.5;" width="344.5" x="20" y="172.9922"/><text fill="#000000" font-family="sans-serif" font-size="13" font-weight="bold" lengthAdjust="spacing" textLength="27" x="35" y="186.0591">opt</text><text fill="#000000" font-family="sans-serif" font-size="11" font-weight="bold" lengthAdjust="spacing" textLength="102" x="107" y="185.2026">[knapp trykket]</text><polygon fill="#181818" points="306.5,207.2578,316.5,211.2578,306.5,215.2578,310.5,211.2578" style="stroke:#181818;stroke-width:1.0;"/><line style="stroke:#181818;stroke-width:1.0;" x1="64.5" x2="312.5" y1="211.2578" y2="211.2578"/><text fill="#000000" font-family="sans-serif" font-size="13" lengthAdjust="spacing" textLength="179" x="71.5" y="206.1919">Legg inn bestilling for etasje</text><polygon fill="#181818" points="223.5,280.3906,233.5,284.3906,223.5,288.3906,227.5,284.3906" style="stroke:#181818;stroke-width:1.0;"/><line style="stroke:#181818;stroke-width:1.0;" x1="64.5" x2="229.5" y1="284.3906" y2="284.3906"/><text fill="#000000" font-family="sans-serif" font-size="13" lengthAdjust="spacing" textLength="125" x="71.5" y="279.3247">Les n&#248;dstoppknapp</text><polygon fill="#181818" points="75.5,309.5234,65.5,313.5234,75.5,317.5234,71.5,313.5234" style="stroke:#181818;stroke-width:1.0;"/><line style="stroke:#181818;stroke-width:1.0;stroke-dasharray:2.0,2.0;" x1="69.5" x2="239.5" y1="313.5234" y2="313.5234"/><text fill="#000000" font-family="sans-serif" font-size="13" lengthAdjust="spacing" textLength="147" x="81.5" y="308.4575">N&#248;dstoppknapptilstand</text><polygon fill="#181818" points="369.5,338.6563,379.5,342.6563,369.5,346.6563,373.5,342.6563" style="stroke:#181818;stroke-width:1.0;"/><line style="stroke:#181818;stroke-width:1.0;" x1="64.5" x2="375.5" y1="342.6563" y2="342.6563"/><text fill="#000000" font-family="sans-serif" font-size="13" lengthAdjust="spacing" textLength="65" x="71.5" y="337.5903">Les etasje</text><polygon fill="#181818" points="75.5,367.7891,65.5,371.7891,75.5,375.7891,71.5,371.7891" style="stroke:#181818;stroke-width:1.0;"/><line style="stroke:#181818;stroke-width:1.0;stroke-dasharray:2.0,2.0;" x1="69.5" x2="385.5" y1="371.7891" y2="371.7891"/><text fill="#000000" font-family="sans-serif" font-size="13" lengthAdjust="spacing" textLength="86" x="81.5" y="366.7231">Etasjetilstand</text><!--SRC=[TL7D2W8X4Bxx54FtVO68Ra51rA4dc79QR4t5cHPwi-wzMEQIkR49NiRlRpx5Y2MO7QZhoR4ss4Qymjb7C2xSX6TAuKbCZqAmoHEbhFSXGz0cBWdoXJg78L1KaCw0WsO9Qp8Sq96TmvQuXcPWKIwuchzecbfWzIMBiIpeT4Phcf39Bpu8P3n8l7STIPwE4-wZfiZlU6sRLdPm94xorhWshpX4BiHYDV3Al0fHlL2A-BxgRoFk-T0iFeIXb8bDfilOZNYbZ-aknkxrLumDVxq-dV-JVm40]--></g></svg>